<?xml version="1.0" encoding="UTF-8"?>
<!DOCTYPE svg  PUBLIC '-//W3C//DTD SVG 1.1//EN'  'http://www.w3.org/Graphics/SVG/1.1/DTD/svg11.dtd'>
<svg clip-rule="evenodd" fill-rule="evenodd" stroke-linejoin="round" stroke-miterlimit="1.4142" version="1.1" viewBox="0 0 462 76" xml:space="preserve" xmlns="http://www.w3.org/2000/svg">
            <path d="m7.21 50.663c-3.778-1.377-6.488-5.121-6.488-9.524 0-3.766 1.981-7.048 4.918-8.782-0.181-1.067-0.275-2.16-0.275-3.272 0-11.568 10.163-21.018 22.959-21.63 2.185-3.986 6.783-6.733 12.103-6.733 4.801 0 9.015 2.238 11.396 5.604 1.242-0.174 2.515-0.266 3.812-0.266 0.719 0 1.43 0.029 2.133 0.084 1.595-1.202 3.555-1.91 5.675-1.91 4.778 0 8.749 3.601 9.545 8.338 3.944 3.594 6.497 8.409 6.878 13.751 5.019 1.132 8.78 5.78 8.78 11.344 0 5.554-3.747 10.196-8.752 11.339 0.399 1.105 0.618 2.301 0.618 3.552 0 5.571-4.339 10.088-9.691 10.088-0.158 0-0.315-3e-3 -0.471-0.012-1.859 3.721-5.594 6.261-9.9 6.261-6.159 0-11.152-5.197-11.152-11.609 0-3.144 1.202-5.996 3.152-8.087-3.09-0.362-5.997-1.242-8.608-2.539-1.852 1.192-3.9 2.158-6.093 2.851 1.061 1.776 1.674 3.873 1.674 6.119 0 6.412-4.993 11.61-11.152 11.61-3.541 0-6.696-1.719-8.739-4.399-0.929 0.309-1.919 0.476-2.946 0.476-5.352 0-9.691-4.517-9.691-10.089 0-0.886 0.11-1.746 0.316-2.565h-1e-3z" fill="#3d2829"/>
            <path d="m4 48.782c-2.007-1.849-3.278-4.588-3.278-7.643 0-3.766 1.929-7.048 4.789-8.782-0.176-1.067-0.268-2.16-0.268-3.272 0-11.568 9.897-21.018 22.356-21.63 2.127-3.986 6.869-6.733 11.785-6.733 4.917 0 9.118 2.135 11.443 5.475-2.388-2.312-5.439-3.672-9.906-3.672s-9.658 2.747-11.785 6.733c-12.459 0.613-22.356 10.062-22.356 21.63 0 1.113 0.092 2.206 0.268 3.273-2.86 1.733-4.789 5.016-4.789 8.781 0 2.177 0.645 4.192 1.741 5.84zm47.364-41.861c1.205-0.174 1.849-0.861 2.829-0.861 0.979 0 1.392 0.029 2.077 0.084 1.553-1.202 3.461-1.911 5.525-1.911 3.175 0 5.984 1.678 7.694 4.248-1.653-1.523-3.804-2.444-6.157-2.444-2.064 0-3.972 0.709-5.525 1.91-0.685-0.055-1.377-0.084-2.077-0.084-1.263 0-2.502 0.092-3.711 0.266-0.379-0.7-0.296-0.695-0.655-1.209v1e-3zm27.817 19.832c2.036 0.789 3.788 2.211 5.049 4.044-1.369-1.302-3.049-2.241-4.905-2.671-0.032-0.461-0.08-0.919-0.144-1.373zm-27.515 39.208c-2.235-2.126-3.644-5.224-3.644-8.675 0-2.51 0.745-4.833 2.012-6.732 0.848 0.193 1.714 0.343 2.594 0.449-1.899 2.09-3.069 4.943-3.069 8.087 0 2.572 0.783 4.947 2.107 6.871zm-41.656-5.089c-2.007-1.85-3.278-4.588-3.278-7.644 0-0.553 0.041-1.097 0.122-1.626 0.541 0.347 1.118 0.638 1.723 0.865-0.201 0.819-0.308 1.678-0.308 2.565 0 2.176 0.644 4.192 1.741 5.84z" fill="#fefefe"/>
            <path d="m6.375 51.103c-1.806-0.79-3.352-2.092-4.467-3.729-1.202-1.763-1.908-3.915-1.908-6.235 0-1.976 0.512-3.83 1.406-5.426 0.844-1.507 2.031-2.784 3.449-3.715-0.059-0.405-0.106-0.809-0.14-1.212-0.047-0.565-0.072-1.134-0.072-1.701 0-5.974 2.615-11.401 6.876-15.416 4.176-3.935 9.941-6.512 16.373-6.911 1.177-1.989 2.932-3.667 5.062-4.851 2.172-1.208 4.734-1.907 7.473-1.907 2.466 0 4.79 0.567 6.815 1.563 1.965 0.967 3.649 2.341 4.907 3.994 0.505-0.064 1.014-0.114 1.526-0.149 0.658-0.046 1.312-0.07 1.96-0.07 0.327 0 0.696 9e-3 1.1 0.024 0.29 0.012 0.564 0.026 0.821 0.043 0.814-0.579 1.713-1.043 2.675-1.367 1.016-0.342 2.095-0.527 3.211-0.527 2.549 0 4.886 0.955 6.699 2.538 1.774 1.549 3.043 3.705 3.513 6.157 1.984 1.847 3.619 4.001 4.808 6.378 1.112 2.223 1.832 4.637 2.079 7.166 2.484 0.683 4.648 2.181 6.211 4.201 1.636 2.114 2.615 4.797 2.615 7.715 0 2.913-0.976 5.593-2.605 7.706-1.507 1.952-3.575 3.418-5.952 4.135 0.104 0.367 0.191 0.742 0.257 1.121 0.109 0.63 0.167 1.276 0.167 1.929 0 2.977-1.163 5.677-3.042 7.633-1.885 1.963-4.492 3.178-7.371 3.178l-8e-3 -3e-3 -0.031-1e-3c-1 1.828-2.439 3.367-4.167 4.46-1.799 1.137-3.91 1.793-6.165 1.793-3.282 0-6.254-1.385-8.404-3.623-2.143-2.232-3.47-5.311-3.47-8.708 0-1.629 0.308-3.19 0.866-4.62 0.412-1.06 0.963-2.047 1.627-2.935-1.113-0.184-2.202-0.435-3.259-0.747-1.364-0.402-2.676-0.906-3.923-1.501-0.85 0.528-1.745 1.013-2.678 1.449-0.788 0.369-1.594 0.7-2.414 0.989 0.371 0.737 0.673 1.519 0.896 2.335 0.295 1.08 0.454 2.212 0.454 3.374 0 3.397-1.327 6.476-3.47 8.708-2.15 2.238-5.121 3.623-8.404 3.623-1.849 0-3.605-0.442-5.17-1.23-1.471-0.74-2.773-1.787-3.828-3.06-0.355 0.098-0.716 0.178-1.082 0.237-0.533 0.086-1.07 0.131-1.605 0.131-2.879 0-5.486-1.215-7.371-3.178-1.879-1.956-3.042-4.656-3.042-7.632 0-0.465 0.029-0.928 0.085-1.383 0.031-0.249 0.07-0.497 0.118-0.743h-1e-3zm-3.277-4.541c1.068 1.568 2.588 2.779 4.358 3.424l0.611 0.223-0.157 0.628c-0.097 0.384-0.171 0.779-0.221 1.183-0.048 0.393-0.073 0.796-0.073 1.208 0 2.594 1.007 4.94 2.635 6.635 1.622 1.688 3.862 2.732 6.334 2.732 0.479 0 0.94-0.037 1.38-0.108 0.461-0.074 0.91-0.184 1.341-0.328l0.487-0.161 0.311 0.407c0.975 1.279 2.221 2.325 3.644 3.041 1.364 0.687 2.899 1.072 4.523 1.072 2.876 0 5.481-1.215 7.366-3.177 1.892-1.97 3.064-4.696 3.064-7.71 0-1.048-0.139-2.053-0.397-2.996-0.268-0.98-0.667-1.905-1.173-2.755l-0.468-0.783 0.868-0.274c1.071-0.338 2.097-0.738 3.069-1.192 0.988-0.463 1.941-0.991 2.852-1.577l0.342-0.221 0.366 0.181c1.283 0.638 2.64 1.172 4.054 1.589 1.385 0.408 2.829 0.706 4.318 0.88l1.415 0.166-0.97 1.041c-0.933 1-1.685 2.186-2.195 3.495-0.492 1.261-0.763 2.646-0.763 4.101 0 3.014 1.172 5.741 3.064 7.711 1.885 1.962 4.49 3.177 7.367 3.177 1.977 0 3.825-0.573 5.397-1.567 1.63-1.031 2.971-2.519 3.857-4.294l0.207-0.415 0.464 0.018 0.235 9e-3 0.211 3e-3v-3e-3c2.472 0 4.712-1.045 6.334-2.732 1.627-1.695 2.635-4.041 2.635-6.635 0-0.58-0.049-1.144-0.144-1.687-0.098-0.565-0.243-1.107-0.429-1.623l-0.276-0.762 0.795-0.182c2.359-0.538 4.422-1.914 5.887-3.811 1.439-1.865 2.301-4.239 2.301-6.826 0-2.592-0.866-4.969-2.31-6.836-1.47-1.899-3.539-3.273-5.905-3.806l-0.524-0.118-0.037-0.533c-0.181-2.534-0.868-4.944-1.971-7.147-1.141-2.283-2.733-4.354-4.674-6.122l-0.184-0.168-0.041-0.246c-0.373-2.221-1.495-4.172-3.084-5.559-1.554-1.358-3.56-2.176-5.751-2.176-0.966 0-1.892 0.157-2.755 0.447-0.895 0.302-1.733 0.749-2.485 1.316l-0.22 0.166-0.271-0.022c-0.37-0.029-0.715-0.05-1.033-0.063-0.305-0.012-0.653-0.018-1.044-0.018-0.64 0-1.263 0.022-1.865 0.064-0.624 0.043-1.241 0.109-1.848 0.194l-0.43 0.061-0.255-0.36c-1.142-1.615-2.737-2.957-4.627-3.887-1.827-0.898-3.935-1.41-6.182-1.41-2.493 0-4.815 0.631-6.775 1.721-2.016 1.121-3.652 2.73-4.697 4.637l-0.194 0.353-0.404 0.019c-6.238 0.298-11.83 2.755-15.852 6.544-3.979 3.748-6.419 8.805-6.419 14.367 0 0.537 0.022 1.065 0.066 1.583 0.045 0.537 0.112 1.062 0.198 1.571l0.082 0.487-0.426 0.252c-1.384 0.816-2.541 2.007-3.343 3.44-0.775 1.384-1.22 2.998-1.22 4.721 0 2.023 0.612 3.895 1.654 5.423z" fill="#573736" fill-rule="nonzero"/>
            <path d="m17.976 14.284c1.774 0 3.382 0.729 4.547 1.909 1.161 1.175 1.879 2.796 1.879 4.585 0 1.788-0.718 3.41-1.879 4.585-1.165 1.179-2.773 1.909-4.547 1.909s-3.382-0.73-4.547-1.909c-1.16-1.175-1.879-2.797-1.879-4.585 0-1.789 0.719-3.41 1.879-4.585 1.165-1.179 2.773-1.909 4.547-1.909zm3.265 3.17c-0.834-0.843-1.988-1.366-3.265-1.366s-2.431 0.523-3.265 1.366c-0.838 0.849-1.357 2.024-1.357 3.324 0 1.299 0.519 2.474 1.357 3.324 0.834 0.843 1.988 1.366 3.265 1.366s2.431-0.523 3.265-1.366c0.838-0.849 1.357-2.024 1.357-3.324s-0.519-2.475-1.357-3.324z" fill="#27ab27" fill-rule="nonzero"/>
            <path d="m44.35 74.463c11.999 0 21.816-9.817 21.816-21.816v-9.038c0-5.953-4.869-10.822-10.822-10.822h-21.989c-5.952 0-10.822 4.869-10.822 10.822v9.038c0 11.999 9.817 21.816 21.817 21.816z" fill="#fce3bf"/>
            <path d="m50.863 59.572c0.139 0.543 0.181 1.439-0.027 2.463-0.208 1.023-0.665 2.175-1.213 3.004-0.548 0.83-1.187 1.337-1.92 1.779-0.732 0.441-1.559 0.817-2.761 1.023-1.203 0.207-2.781 0.245-3.702 0.254-0.921 0.01-1.184-9e-3 -1.473-0.25s-0.604-0.706-0.641-1.546c-0.037-0.841 0.203-2.059 0.924-2.823 0.722-0.764 1.923-1.074 3.238-1.37 1.316-0.296 2.744-0.578 3.755-1.032 1.012-0.454 1.608-1.08 1.958-1.393s0.456-0.313 0.624-0.433c0.168-0.121 0.399-0.361 0.631-0.386 0.234-0.025 0.469 0.166 0.608 0.709l-1e-3 1e-3z" fill="#edcb9c"/>
            <path d="m22.777 55.898c0.952 6.297 4.62 11.735 9.765 15.069 0.019-5e-3 0.037-0.012 0.053-0.019 0.252-0.119 0.183-0.426-0.394-1.024-0.577-0.599-1.664-1.489-2.778-2.877s-2.257-3.274-3.039-4.956c-0.783-1.683-1.205-3.161-1.553-4.241-0.347-1.081-0.62-1.763-0.955-2.052-0.291-0.252-0.63-0.204-1.099 0.1z" fill="#fefefe"/>
            <path d="m44.35 74.463c10.933 0 20.052-8.15 21.587-18.675-0.226-0.167-0.403-0.293-0.567-0.314-0.354-0.046-0.652 0.393-1.76 2.315-1.108 1.921-3.026 5.326-5.112 7.75-2.085 2.424-4.339 3.866-6.48 4.907-2.142 1.041-4.171 1.68-6.144 1.981-1.973 0.3-3.889 0.262-6.117-0.191-2.227-0.454-4.764-1.323-6.033-1.758s-1.269-0.435-0.808 0.658l0.039 0.092c3.322 2.049 7.226 3.235 11.394 3.235h1e-3z" fill="#edcb9c"/>
            <path d="m66.166 44.37v-0.761c0-5.952-4.869-10.822-10.822-10.822h-21.989c-5.952 0-10.822 4.87-10.822 10.822v9.038l1e-3 0.044c1.127 0.441 1.803-0.112 2.096-0.768 0.342-0.763 0.166-1.669 0.041-3.273s-0.198-3.908 0.347-5.398c0.546-1.49 1.711-2.166 2.707-2.711s1.823-0.959 2.386-0.752c0.564 0.207 0.864 1.034 4.453 1.503 3.589 0.47 10.466 0.583 14.205 0.282s4.341-1.015 5.036-1.503c0.695-0.489 1.484-0.752 2.217-0.132s1.41 2.123 2.97 2.988c1.561 0.864 4.007 1.089 5.567 1.259 0.678 0.073 1.189 0.136 1.607 0.184z" fill="#edcb9c"/>
            <path d="m44.35 73.742c5.8 0 11.074-2.374 14.898-6.197 3.823-3.823 6.196-9.097 6.196-14.898v-9.038c0-2.779-1.135-5.304-2.964-7.133l-3e-3 -2e-3c-1.829-1.83-4.354-2.965-7.133-2.965h-21.989c-2.779 0-5.304 1.135-7.133 2.965l-2e-3 2e-3c-1.829 1.829-2.965 4.354-2.965 7.133v9.038c0 5.801 2.374 11.075 6.197 14.898 3.823 3.824 9.097 6.197 14.898 6.197zm15.918-5.177c-4.085 4.085-9.72 6.62-15.918 6.62-6.199 0-11.834-2.535-15.919-6.62-4.084-4.084-6.62-9.719-6.62-15.918v-9.038c0-3.172 1.299-6.057 3.391-8.15l1e-3 -2e-3 2e-3 -1e-3c2.093-2.092 4.979-3.391 8.15-3.391h21.989c3.172 0 6.057 1.299 8.15 3.391l3e-3 3e-3c2.092 2.093 3.391 4.979 3.391 8.15v9.038c0 6.199-2.536 11.834-6.621 15.918h1e-3z" fill="#573736" fill-rule="nonzero"/>
            <path d="m39.779 47.373c1.2 0 2.174 0.895 2.174 2 0 1.106-0.974 2.001-2.174 2.001-1.201 0-2.175-0.895-2.175-2.001 0-1.105 0.974-2 2.175-2z" fill="#573736"/>
            <path d="m48.604 47.721c1.201 0 2.175 0.896 2.175 2.001s-0.974 2-2.175 2c-1.2 0-2.174-0.895-2.174-2s0.974-2.001 2.174-2.001z" fill="#573736"/>
            <path d="m48.49 49.925c0.39 0 0.706 0.292 0.706 0.651s-0.316 0.65-0.706 0.65-0.706-0.291-0.706-0.65 0.316-0.651 0.706-0.651z" fill="#fefefe"/>
            <path d="m46.669 44.456 8.924-1.227c0.369-0.051 0.712 0.209 0.763 0.578 0.05 0.369-0.211 0.712-0.579 0.763l-8.924 1.227c-0.368 0.05-0.712-0.21-0.762-0.579-0.051-0.368 0.209-0.711 0.578-0.762z" fill="#573736"/>
            <path d="m41.427 44.456-8.924-1.227c-0.369-0.051-0.712 0.209-0.763 0.578-0.05 0.369 0.211 0.712 0.579 0.763l8.924 1.227c0.368 0.05 0.712-0.21 0.762-0.579 0.051-0.368-0.209-0.711-0.578-0.762z" fill="#573736"/>
            <path d="m56.957 54.878c2.4 0 4.347 1.866 4.347 4.167 0 2.302-1.947 4.167-4.347 4.167s-4.346-1.865-4.346-4.167c0-2.301 1.946-4.167 4.346-4.167z" fill="#e51685" fill-opacity=".2"/>
            <path d="m31.369 54.878c2.4 0 4.346 1.866 4.346 4.167 0 2.302-1.946 4.167-4.346 4.167-2.401 0-4.347-1.865-4.347-4.167 0-2.301 1.946-4.167 4.347-4.167z" fill="#e51685" fill-opacity=".2"/>
            <path d="m32.836 26.65h22.011c1.339 0 2.434 1.096 2.434 2.434v5.593c0 1.34-1.095 2.434-2.434 2.434h-22.011c-1.34 0-2.435-1.094-2.435-2.434v-5.593c0-1.339 1.095-2.434 2.435-2.434z" fill="#27ab27"/>
            <path d="m32.95 26.65h21.783c1.402 0 2.549 1.096 2.549 2.434v0.515c-0.338-0.168-0.565-0.385-0.822-0.65-0.302-0.312-0.646-0.688-0.935-0.893-0.289-0.206-0.522-0.241-4.29-0.241s-11.07 0.035-14.856 0.076-4.057 0.088-4.266 0.311-0.356 0.623-0.424 1.803-0.055 3.141 0.073 4.251c0.13 1.11 0.376 1.368 0.591 1.633 0.215 0.264 0.399 0.534 0.307 0.781-0.05 0.134-0.182 0.26-0.427 0.343-1.055-0.298-1.832-1.234-1.832-2.336v-5.593c0-1.339 1.147-2.434 2.549-2.434z" fill="#fefefe"/>
            <path d="m32.95 25.928h21.783c0.907 0 1.733 0.355 2.331 0.927l3e-3 2e-3 0.013 0.013c0.591 0.571 0.957 1.355 0.957 2.214v5.593c0 0.868-0.372 1.658-0.97 2.229-0.598 0.572-1.425 0.927-2.334 0.927h-21.783c-0.906 0-1.733-0.355-2.332-0.927l-2e-3 -2e-3 -0.014-0.013c-0.59-0.571-0.956-1.354-0.956-2.214v-5.593c0-0.865 0.373-1.655 0.972-2.228l-2e-3 -1e-3c0.599-0.572 1.425-0.927 2.334-0.927zm21.783 1.443h-21.783c-0.493 0-0.941 0.193-1.266 0.504l-1e-3 -1e-3 -2e-3 1e-3c-0.323 0.309-0.524 0.738-0.524 1.209v5.593c0 0.471 0.201 0.899 0.524 1.21l2e-3 2e-3c0.325 0.309 0.774 0.501 1.267 0.501h21.783c0.493 0 0.942-0.193 1.266-0.503 0.325-0.311 0.527-0.739 0.527-1.21v-5.593c0-0.47-0.201-0.899-0.524-1.209l-3e-3 -3e-3c-0.324-0.308-0.773-0.501-1.266-0.501z" fill="#573736" fill-rule="nonzero"/>
            <path d="m11.674 35.465c1.775 0 3.383 0.73 4.548 1.909 1.16 1.175 1.878 2.797 1.878 4.585s-0.718 3.41-1.878 4.585c-1.165 1.179-2.773 1.909-4.548 1.909-1.774 0-3.382-0.73-4.547-1.909-1.16-1.175-1.879-2.797-1.879-4.585s0.719-3.41 1.879-4.585c1.165-1.179 2.773-1.909 4.547-1.909zm3.265 3.171c-0.833-0.844-1.988-1.367-3.265-1.367-1.276 0-2.431 0.523-3.264 1.367-0.839 0.848-1.358 2.023-1.358 3.323s0.519 2.475 1.358 3.324c0.833 0.843 1.988 1.366 3.264 1.366 1.277 0 2.432-0.523 3.265-1.366 0.838-0.849 1.357-2.024 1.357-3.324 0-1.299-0.519-2.475-1.357-3.323z" fill="#27ab27" fill-rule="nonzero"/>
            <path d="m77.891 32.157c1.775 0 3.383 0.73 4.548 1.909 1.16 1.175 1.878 2.797 1.878 4.585 0 1.789-0.718 3.41-1.878 4.585-1.165 1.179-2.773 1.909-4.548 1.909-1.774 0-3.382-0.729-4.547-1.909-1.16-1.175-1.879-2.796-1.879-4.585 0-1.788 0.719-3.41 1.879-4.585 1.165-1.179 2.773-1.909 4.547-1.909zm3.265 3.171c-0.833-0.844-1.988-1.367-3.265-1.367-1.276 0-2.431 0.523-3.264 1.367-0.838 0.848-1.357 2.024-1.357 3.323 0 1.3 0.519 2.475 1.357 3.324 0.833 0.843 1.988 1.366 3.264 1.366 1.277 0 2.432-0.523 3.265-1.366 0.838-0.849 1.357-2.024 1.357-3.324 0-1.299-0.519-2.474-1.357-3.323z" fill="#27ab27" fill-rule="nonzero"/>
            <path d="m63.094 8.468c1.774 0 3.383 0.73 4.548 1.91 1.16 1.174 1.878 2.796 1.878 4.585 0 1.788-0.718 3.41-1.878 4.584-1.165 1.18-2.774 1.91-4.548 1.91s-3.382-0.73-4.547-1.91c-1.16-1.174-1.879-2.796-1.879-4.584 0-1.789 0.719-3.411 1.879-4.585 1.165-1.18 2.773-1.91 4.547-1.91zm3.265 3.171c-0.833-0.844-1.988-1.367-3.265-1.367-1.276 0-2.431 0.523-3.264 1.367-0.839 0.849-1.358 2.024-1.358 3.324 0 1.299 0.519 2.474 1.358 3.323 0.833 0.844 1.988 1.367 3.264 1.367 1.277 0 2.432-0.523 3.265-1.367 0.838-0.849 1.357-2.024 1.357-3.323 0-1.3-0.519-2.475-1.357-3.324z" fill="#27ab27" fill-rule="nonzero"/>
            <path d="m33.93 23.467h19.613v11.613c0 1.985-1.623 3.608-3.608 3.608h-12.399c-1.984 0-3.606-1.623-3.606-3.608v-11.613z" fill="#3d2829"/>
            <path d="m38.501 38.688h-0.965c-1.984 0-3.606-1.623-3.606-3.608v-9.16c0.174 8e-3 0.335 8e-3 0.482 8e-3h0.665c0.122 0 0.122 0 0.112 0.832-9e-3 0.832-0.028 2.497-0.037 4.062-0.01 1.565-0.01 3.03 0.018 3.942 0.029 0.911 0.085 1.269 0.289 1.701s0.554 0.939 1.062 1.18c0.507 0.241 1.171 0.214 1.587 0.344 0.341 0.105 0.516 0.315 0.393 0.699z" fill="#fefefe"/>
            <path d="m54.084 25.928v9.152c0 1.14-0.467 2.177-1.219 2.929l-2e-3 2e-3c-0.751 0.751-1.789 1.218-2.928 1.218h-12.399c-1.141 0-2.179-0.466-2.93-1.218-0.751-0.751-1.218-1.789-1.218-2.931v-9.152h1.082v9.152c0 0.843 0.346 1.61 0.901 2.166 0.556 0.556 1.323 0.901 2.165 0.901h12.399c0.844 0 1.61-0.344 2.165-0.899l2e-3 -2e-3c0.555-0.555 0.899-1.322 0.899-2.166v-9.152h1.083z" fill="#573736" fill-rule="nonzero"/>
            <path d="m19.646 47.809c3.586 0 6.493 2.935 6.493 6.555s-2.908 6.555-6.493 6.555c-3.587 0-6.494-2.935-6.494-6.555s2.907-6.555 6.494-6.555z" fill="#3d2829"/>
            <path d="m21.816 47.613c1.069 0.35 2.027 0.952 2.804 1.736 1.273 1.284 2.06 3.058 2.06 5.015s-0.787 3.731-2.06 5.016c-0.401 0.405-0.85 0.761-1.338 1.059-0.085-0.279-0.194-0.645-0.312-1.084 0.318-0.216 0.614-0.463 0.884-0.736 1.077-1.087 1.744-2.592 1.744-4.255s-0.667-3.168-1.744-4.254c-0.571-0.577-1.259-1.038-2.025-1.342-6e-3 -0.406-0.011-0.792-0.013-1.155z" fill="#573736" fill-rule="nonzero"/>
            <path d="m68.638 47.944c3.586 0 6.493 2.935 6.493 6.555s-2.908 6.554-6.493 6.554c-3.587 0-6.494-2.934-6.494-6.554s2.907-6.555 6.494-6.555z" fill="#3d2829"/>
            <path d="m65.31 60.751c-0.608-0.33-1.162-0.748-1.647-1.236-1.272-1.285-2.06-3.059-2.06-5.016s0.788-3.731 2.06-5.016c0.864-0.872 1.952-1.518 3.169-1.843 0.046 0.304 0.094 0.737 0.065 1.15-0.89 0.297-1.821 0.801-2.468 1.455-1.077 1.086-1.744 2.591-1.744 4.254s0.667 3.167 1.744 4.255c0.326 0.328 0.936 0.802 1.33 1.048-0.055 0.382-0.364 0.572-0.449 0.949z" fill="#573736" fill-rule="nonzero"/>
            <path d="m65.142 28.667c3.586 0 6.494 2.934 6.494 6.554 0 3.621-2.908 6.555-6.494 6.555s-6.493-2.934-6.493-6.555c0-3.62 2.907-6.554 6.493-6.554z" fill="#3d2829"/>
            <path d="m66.774 42.125c-0.524 0.126-1.071 0.193-1.632 0.193-1.942 0-3.701-0.796-4.974-2.081s-2.06-3.059-2.06-5.016c0-0.944 0.184-1.846 0.516-2.671 0.351 0.074 0.711 0.158 1.064 0.259-0.32 0.738-0.498 1.554-0.498 2.412 0 1.663 0.667 3.168 1.743 4.255 1.077 1.087 2.566 1.759 4.209 1.759 0.505 0 0.995-0.063 1.463-0.183 0.046 0.354 0.104 0.686 0.169 1.073z" fill="#573736" fill-rule="nonzero"/>
            <path d="m22.549 28.442c3.288 0 5.953 2.689 5.953 6.008 0 3.318-2.665 6.008-5.953 6.008-3.287 0-5.952-2.69-5.952-6.008 0-3.319 2.665-6.008 5.952-6.008z" fill="#3d2829"/>
            <path d="m28.874 32.96c0.111 0.479 0.169 0.978 0.169 1.49 0 1.806-0.727 3.443-1.902 4.629s-2.799 1.92-4.591 1.92c-0.127 0-0.251-4e-3 -0.376-0.011 0.073-0.26 0.132-0.501 0.179-0.67 0.063-0.226 0.103-0.325 0.188-0.401h8e-3c1.495 0 2.848-0.612 3.827-1.599 0.978-0.988 1.585-2.357 1.585-3.868 0-0.387-0.04-0.764-0.115-1.127 0.272-0.116 0.532-0.199 0.747-0.269l0.281-0.094z" fill="#573736" fill-rule="nonzero"/>
            <path d="m39.57 59.368h10.684c0 4.02-3.288 7.308-7.308 7.308h-3.377v-7.308h1e-3z" fill="#fefefe"/>
            <path d="m39.57 58.647h10.684c0.398 0 0.722 0.323 0.722 0.721 0 2.206-0.903 4.213-2.359 5.669l-1e-3 2e-3 -1e-3 1e-3 -2e-3 1e-3c-1.456 1.455-3.463 2.357-5.667 2.357h-3.377c-0.398 0-0.721-0.323-0.721-0.721v-7.309c0-0.398 0.323-0.721 0.721-0.721h1e-3zm9.923 1.443h-9.201v5.865h2.654c1.813 0 3.46-0.741 4.652-1.933l2e-3 -2e-3c1.032-1.032 1.725-2.404 1.893-3.93z" fill="#573736" fill-rule="nonzero"/>
            <path d="m39.7 49.57c0.39 0 0.706 0.291 0.706 0.649 0 0.36-0.316 0.651-0.706 0.651-0.391 0-0.707-0.291-0.707-0.651 0-0.358 0.316-0.649 0.707-0.649z" fill="#fefefe"/>
        <path d="m115.58 55.31v-23.466s2.824-1.13 5.585-1.13c3.889 0 4.392 2.824 4.392 8.471v16.125h8.407v-16.251c0-2.447-0.251-7.153-0.251-7.153s3.326-1.192 5.835-1.192c3.765 0 4.392 3.075 4.392 7.843v16.753h8.408v-17.004c0-10.101-2.51-15.121-11.043-15.121-4.768 0-10.541 2.949-10.541 2.949-1.882-2.008-4.329-2.949-7.843-2.949-3.074 0-7.404 2.51-7.404 2.51v-1.757h-8.345v31.372h8.408zm66.67-21.584c0-7.341-3.263-10.541-11.42-10.541-6.023 0-12.736 1.819-12.736 1.819l0.251 5.835s7.654-0.502 11.795-0.502c2.51 0 3.703 0.691 3.703 3.389v1.945l-6.714 0.501c-6.902 0.502-10.98 2.51-10.98 9.6 0 6.651 3.137 10.29 9.725 10.29 4.706 0 9.224-2.196 9.224-2.196 2.635 1.757 4.768 2.196 8.972 2.196l0.251-6.337c-1.694-0.314-1.945-1.067-2.071-2.949v-13.051 1e-3zm-8.408 7.78v6.714s-3.451 1.003-6.148 1.003c-2.259 0-3.075-1.505-3.075-3.702 0-2.258 1.318-3.325 3.514-3.513l5.71-0.502h-1e-3zm23.251 13.804v-23.466s2.824-1.13 5.585-1.13c3.889 0 4.392 2.824 4.392 8.471v16.125h8.407v-16.251c0-2.447-0.251-7.153-0.251-7.153s3.326-1.192 5.835-1.192c3.765 0 4.392 3.075 4.392 7.843v16.753h8.408v-17.004c0-10.101-2.51-15.121-11.043-15.121-4.768 0-10.541 2.949-10.541 2.949-1.882-2.008-4.329-2.949-7.843-2.949-3.074 0-7.404 2.51-7.404 2.51v-1.757h-8.345v31.372h8.408zm42.639 0h8.408v-31.372h-8.408v31.372zm0-35.388h8.408v-8.533h-8.408v8.533zm23 35.388v-11.67l3.451-0.565 6.337 12.235h9.474l-8.596-16.502 8.157-14.87h-9.412l-6.212 11.858-3.199 0.565v-24.972h-8.408v43.92h8.408v1e-3zm34.544-32.125c-10.917 0-14.431 6.713-14.431 16.376 0 9.662 3.514 16.502 14.431 16.502 10.918 0 14.432-6.839 14.432-16.502s-3.514-16.376-14.432-16.376zm0 25.725c-4.643 0-5.898-3.263-5.898-9.349s1.255-9.224 5.898-9.224 5.898 3.138 5.898 9.224-1.255 9.349-5.898 9.349zm41.635-24.094s-7.655-1.569-12.173-1.569c-6.588 0-12.109 2.949-12.109 10.228 0 6.902 3.576 8.533 10.353 9.662 5.772 0.941 6.462 1.569 6.462 2.949 0 1.632-1.066 2.447-5.082 2.447-3.2 0-10.98-1.004-10.98-1.004l-0.251 7.028s7.404 1.505 12.047 1.505c7.843 0 12.611-2.823 12.611-10.164 0-6.337-2.572-8.471-9.851-9.788-5.772-1.067-6.964-1.38-6.964-2.823 0-1.695 0.753-2.51 4.392-2.51s11.419 1.004 11.419 1.004l0.126-6.965zm4.992 30.494h9.035v-10.416h-9.035v10.416zm26.577-32.125c-9.349 0-13.239 5.02-13.239 16.125 0 11.796 3.702 16.753 13.051 16.753 3.513 0 10.227-1.318 10.227-1.318l-0.251-6.713s-4.894 0.502-7.278 0.502c-6.024 0-7.216-2.196-7.216-9.224 0-6.274 1.129-8.596 7.153-8.596 2.384 0 7.341 0.502 7.341 0.502l0.251-6.651s-6.4-1.38-10.039-1.38zm27.203 0c-10.917 0-14.431 6.713-14.431 16.376 0 9.662 3.514 16.502 14.431 16.502 10.918 0 14.432-6.839 14.432-16.502s-3.514-16.376-14.432-16.376zm0 25.725c-4.643 0-5.897-3.263-5.897-9.349s1.254-9.224 5.897-9.224c4.644 0 5.899 3.138 5.899 9.224s-1.255 9.349-5.899 9.349zm27.393 6.4v-23.466s2.823-1.13 5.584-1.13c3.89 0 4.392 2.824 4.392 8.471v16.125h8.407v-16.251c0-2.447-0.251-7.153-0.251-7.153s3.326-1.192 5.835-1.192c3.765 0 4.393 3.075 4.393 7.843v16.753h8.407v-17.004c0-10.101-2.509-15.121-11.043-15.121-4.768 0-10.54 2.949-10.54 2.949-1.883-2.008-4.33-2.949-7.844-2.949-3.074 0-7.403 2.51-7.403 2.51v-1.757h-8.345v31.372h8.408z" fill="#fff" fill-rule="nonzero"/>
</svg>
