<svg xmlns="http://www.w3.org/2000/svg" viewBox="0 0 45.355 45.355"><defs><style>.a{fill:#25c025;}.b{fill:#3d2829;}.b,.c,.f,.g,.h,.i,.j{fill-rule:evenodd;}.c{fill:#fefefe;}.d,.h{fill:#573736;}.e,.j{fill:#27ab27;}.f{fill:#fce3bf;}.g{fill:#edcb9c;}.i{fill:rgba(229,22,133,0.2);}</style></defs><circle class="a" cx="22.678" cy="22.678" r="22.678" transform="translate(0)"/><g transform="translate(6.366 8.927)"><g transform="translate(0 0)"><path class="b" d="M28.279,44.343a3.794,3.794,0,0,1-.581-6.767,7.24,7.24,0,0,1-.1-1.21c0-4.277,3.757-7.77,8.488-8a5.06,5.06,0,0,1,4.475-2.489,5.137,5.137,0,0,1,4.213,2.072,10.119,10.119,0,0,1,1.409-.1q.4,0,.789.031a3.472,3.472,0,0,1,2.1-.706A3.628,3.628,0,0,1,52.6,30.261a7.617,7.617,0,0,1,2.543,5.084,4.333,4.333,0,0,1,.01,8.386,3.859,3.859,0,0,1,.229,1.313,3.659,3.659,0,0,1-3.583,3.73q-.088,0-.174,0a4.106,4.106,0,0,1-3.66,2.315,4.21,4.21,0,0,1-4.123-4.292A4.37,4.37,0,0,1,45,43.8a9.678,9.678,0,0,1-3.183-.939,9.37,9.37,0,0,1-2.253,1.054,4.4,4.4,0,0,1,.619,2.262,4.21,4.21,0,0,1-4.123,4.292,4.058,4.058,0,0,1-3.231-1.626,3.453,3.453,0,0,1-1.089.176,3.659,3.659,0,0,1-3.583-3.73,3.879,3.879,0,0,1,.117-.948Z" transform="translate(-25.613 -25.613)"/><path class="c" d="M27.092,43.648a3.832,3.832,0,0,1-1.212-2.826,3.778,3.778,0,0,1,1.771-3.246,7.418,7.418,0,0,1-.1-1.21c0-4.277,3.659-7.77,8.265-8a5.019,5.019,0,0,1,4.357-2.489A5.074,5.074,0,0,1,44.4,27.9a4.931,4.931,0,0,0-3.662-1.357,5.232,5.232,0,0,0-4.357,2.489c-4.606.226-8.265,3.72-8.265,8a7.407,7.407,0,0,0,.1,1.21,3.777,3.777,0,0,0-1.771,3.246,3.889,3.889,0,0,0,.644,2.159ZM44.6,28.172c.445-.064.684-.318,1.046-.318s.515.011.768.031a3.323,3.323,0,0,1,2.043-.706,3.423,3.423,0,0,1,2.844,1.57,3.313,3.313,0,0,0-4.319-.2q-.38-.03-.768-.031a9.6,9.6,0,0,0-1.372.1,3.262,3.262,0,0,0-.242-.447ZM54.886,35.5A4.06,4.06,0,0,1,56.752,37a3.918,3.918,0,0,0-1.813-.987q-.018-.256-.053-.508ZM44.714,50a4.415,4.415,0,0,1-1.347-3.207A4.474,4.474,0,0,1,44.11,44.3a9.376,9.376,0,0,0,.959.166A4.518,4.518,0,0,0,44.714,50Zm-15.4-1.881A3.832,3.832,0,0,1,28.1,45.291a3.991,3.991,0,0,1,.045-.6,3.379,3.379,0,0,0,.637.319,3.98,3.98,0,0,0-.114.948,3.89,3.89,0,0,0,.644,2.159Z" transform="translate(-25.613 -25.613)"/><path class="d" d="M2.357,18.882A3.892,3.892,0,0,1,.705,17.5,4.124,4.124,0,0,1,.52,13.193,3.952,3.952,0,0,1,1.795,11.82q-.033-.225-.052-.448c-.018-.209-.027-.419-.027-.629a7.812,7.812,0,0,1,2.542-5.7,9.692,9.692,0,0,1,6.053-2.555A4.969,4.969,0,0,1,12.183.7,5.773,5.773,0,0,1,17.465.568a5.107,5.107,0,0,1,1.814,1.477q.28-.035.564-.055.365-.025.725-.026c.121,0,.257,0,.407.009q.161.006.3.016a3.79,3.79,0,0,1,.989-.505,3.731,3.731,0,0,1,3.663.743,4.026,4.026,0,0,1,1.3,2.276,8.3,8.3,0,0,1,1.778,2.358,7.552,7.552,0,0,1,.769,2.649,4.381,4.381,0,0,1,2.3,1.553,4.692,4.692,0,0,1,0,5.7,4.39,4.39,0,0,1-2.2,1.529,4.111,4.111,0,0,1,.095.415,4.17,4.17,0,0,1,.062.713,4.063,4.063,0,0,1-1.125,2.822,3.767,3.767,0,0,1-2.725,1.175h-.015a4.51,4.51,0,0,1-1.541,1.649,4.248,4.248,0,0,1-2.279.663,4.3,4.3,0,0,1-3.107-1.339,4.636,4.636,0,0,1-1.283-3.219,4.7,4.7,0,0,1,.32-1.708,4.6,4.6,0,0,1,.6-1.085,10.078,10.078,0,0,1-1.205-.276,9.79,9.79,0,0,1-1.45-.555,9.541,9.541,0,0,1-.99.536q-.437.2-.893.366a4.643,4.643,0,0,1,.331.863,4.727,4.727,0,0,1,.168,1.247,4.636,4.636,0,0,1-1.283,3.219,4.3,4.3,0,0,1-3.107,1.339A4.242,4.242,0,0,1,8.54,24.66a4.427,4.427,0,0,1-1.415-1.131,3.739,3.739,0,0,1-.993.136A3.767,3.767,0,0,1,3.407,22.49a4.063,4.063,0,0,1-1.125-2.822,4.184,4.184,0,0,1,.032-.511q.017-.138.044-.275ZM1.145,17.2A3.344,3.344,0,0,0,2.756,18.47l.226.082-.058.232a3.609,3.609,0,0,0-.109.884,3.53,3.53,0,0,0,.974,2.453,3.238,3.238,0,0,0,2.342,1.01,3.16,3.16,0,0,0,1.006-.161l.18-.06.115.151A3.911,3.911,0,0,0,8.78,24.185a3.706,3.706,0,0,0,1.672.4,3.766,3.766,0,0,0,2.723-1.175,4.1,4.1,0,0,0,1.132-2.85,4.192,4.192,0,0,0-.147-1.108,4.1,4.1,0,0,0-.434-1.018l-.173-.289.321-.1a9.266,9.266,0,0,0,1.135-.441,9,9,0,0,0,1.054-.583l.127-.082.135.067a9.242,9.242,0,0,0,1.5.587,9.579,9.579,0,0,0,1.6.325l.523.061-.359.385a4.054,4.054,0,0,0-.811,1.292,4.166,4.166,0,0,0-.282,1.516,4.1,4.1,0,0,0,1.132,2.85,3.766,3.766,0,0,0,2.723,1.175,3.719,3.719,0,0,0,2-.579,3.98,3.98,0,0,0,1.426-1.587l.076-.153.172.006.087,0h.078a3.238,3.238,0,0,0,2.341-1.01A3.53,3.53,0,0,0,29.5,19.42a3.633,3.633,0,0,0-.053-.624,3.567,3.567,0,0,0-.159-.6l-.1-.282.294-.067a3.837,3.837,0,0,0,2.176-1.409,4.167,4.167,0,0,0,0-5.05,3.837,3.837,0,0,0-2.183-1.407l-.193-.044-.014-.2A7.006,7.006,0,0,0,28.532,7.1,7.784,7.784,0,0,0,26.8,4.835l-.068-.062-.015-.091a3.5,3.5,0,0,0-1.14-2.055,3.22,3.22,0,0,0-2.126-.8,3.187,3.187,0,0,0-1.018.165,3.256,3.256,0,0,0-.919.487l-.081.061-.1-.008c-.137-.011-.264-.019-.382-.023s-.241-.007-.386-.007q-.355,0-.689.024t-.683.072l-.159.023-.094-.133a4.543,4.543,0,0,0-1.711-1.437,5.259,5.259,0,0,0-4.79.115A4.411,4.411,0,0,0,10.7,2.875l-.072.13-.149.007a9.175,9.175,0,0,0-5.86,2.419A7.283,7.283,0,0,0,2.25,10.743q0,.3.024.585c.017.2.042.393.073.581l.03.18-.158.093A3.409,3.409,0,0,0,.985,13.454a3.6,3.6,0,0,0,.161,3.75Z" transform="translate(0 0.01)"/><path class="e" d="M416.526,512.17a2.356,2.356,0,0,1,1.681.706,2.415,2.415,0,0,1,0,3.39,2.354,2.354,0,0,1-3.362,0,2.415,2.415,0,0,1,0-3.39A2.357,2.357,0,0,1,416.526,512.17Zm1.207,1.172a1.694,1.694,0,0,0-2.414,0,1.756,1.756,0,0,0,0,2.458,1.694,1.694,0,0,0,2.414,0,1.755,1.755,0,0,0,0-2.458Z" transform="translate(-409.88 -506.889)"/><path class="f" d="M816.055,1191.048h0a8.089,8.089,0,0,0,8.065-8.065v-3.341a4.013,4.013,0,0,0-4-4h-8.129a4.013,4.013,0,0,0-4,4v3.341A8.089,8.089,0,0,0,816.055,1191.048Z" transform="translate(-799.66 -1163.519)"/><path class="g" d="M1407.16,2110.836a2.175,2.175,0,0,1-.01.911,3.365,3.365,0,0,1-.448,1.111,2.088,2.088,0,0,1-.71.657,2.79,2.79,0,0,1-1.021.378,9.523,9.523,0,0,1-1.368.094c-.34,0-.437,0-.545-.093a.749.749,0,0,1-.237-.571,1.511,1.511,0,0,1,.342-1.044,2.333,2.333,0,0,1,1.2-.507,7.992,7.992,0,0,0,1.388-.381,2.577,2.577,0,0,0,.724-.515,1.232,1.232,0,0,1,.23-.16c.062-.044.148-.133.234-.142S1407.108,2110.635,1407.16,2110.836Z" transform="translate(-1388.356 -2088.813)"/><path class="c" d="M816.73,1995.054a8.1,8.1,0,0,0,3.61,5.571l.02-.007c.093-.044.068-.157-.146-.378a11.823,11.823,0,0,1-1.027-1.063,9.6,9.6,0,0,1-1.124-1.832,12.325,12.325,0,0,1-.574-1.568,1.868,1.868,0,0,0-.353-.758C817.029,1994.924,816.9,1994.942,816.73,1995.054Z" transform="translate(-808.31 -1974.389)"/><path class="g" d="M1174.514,1996.048h0a8.094,8.094,0,0,0,7.98-6.9.527.527,0,0,0-.21-.116c-.131-.017-.241.146-.651.856a19.588,19.588,0,0,1-1.89,2.865,7.206,7.206,0,0,1-2.4,1.814,7.883,7.883,0,0,1-2.271.732,6.235,6.235,0,0,1-2.261-.07,19.258,19.258,0,0,1-2.231-.65c-.469-.161-.469-.161-.3.243l.014.034a8,8,0,0,0,4.213,1.2Z" transform="translate(-1158.118 -1968.519)"/><path class="g" d="M824.121,1179.932v-.281a4.013,4.013,0,0,0-4-4h-8.129a4.013,4.013,0,0,0-4,4v3.358a.552.552,0,0,0,.775-.284,2.7,2.7,0,0,0,.015-1.21,5.382,5.382,0,0,1,.129-2,1.9,1.9,0,0,1,1-1c.368-.2.674-.354.882-.278a3.024,3.024,0,0,0,1.646.556,32.2,32.2,0,0,0,5.251.1c1.382-.111,1.6-.375,1.862-.555a.625.625,0,0,1,.82-.049c.271.229.521.785,1.1,1.1a5.966,5.966,0,0,0,2.058.465C823.777,1179.891,823.966,1179.914,824.121,1179.932Z" transform="translate(-799.66 -1163.529)"/><path class="d" d="M790.432,1165.177a7.822,7.822,0,0,0,7.8-7.8v-3.342a3.721,3.721,0,0,0-1.1-2.637h0a3.721,3.721,0,0,0-2.637-1.1h-8.129a3.721,3.721,0,0,0-2.637,1.1h0a3.722,3.722,0,0,0-1.1,2.637v3.342a7.822,7.822,0,0,0,7.8,7.8Zm5.885-1.914a8.332,8.332,0,0,1-14.217-5.885v-3.342a4.254,4.254,0,0,1,1.254-3.013h0a4.256,4.256,0,0,1,3.013-1.254H794.5a4.255,4.255,0,0,1,3.013,1.254h0a4.256,4.256,0,0,1,1.254,3.013v3.342A8.307,8.307,0,0,1,796.317,1163.264Z" transform="translate(-774.037 -1137.916)"/><path class="h" d="M1349.194,1698.68a.742.742,0,1,1-.8.74A.774.774,0,0,1,1349.194,1698.68Z" transform="translate(-1334.488 -1681.167)"/><path class="h" d="M1665.674,1711.16a.742.742,0,1,1-.8.74A.774.774,0,0,1,1665.674,1711.16Z" transform="translate(-1647.706 -1693.518)"/><path class="c" d="M1713.661,1790.2a.241.241,0,1,1-.261.24A.251.251,0,0,1,1713.661,1790.2Z" transform="translate(-1695.735 -1771.743)"/><path class="h" d="M1652.689,1550.309l3.3-.454a.251.251,0,0,1,.282.214h0a.251.251,0,0,1-.214.282l-3.3.453a.251.251,0,0,1-.282-.214h0A.25.25,0,0,1,1652.689,1550.309Z" transform="translate(-1635.436 -1533.874)"/><path class="h" d="M1141.489,1550.309l-3.3-.454a.251.251,0,0,0-.282.214h0a.251.251,0,0,0,.214.282l3.3.453a.251.251,0,0,0,.282-.214h0A.251.251,0,0,0,1141.489,1550.309Z" transform="translate(-1126.174 -1533.874)"/><path class="i" d="M1888.117,1967.8a1.542,1.542,0,1,1-1.607,1.541A1.575,1.575,0,0,1,1888.117,1967.8Z" transform="translate(-1867.06 -1947.512)"/><path class="i" d="M970.557,1967.8a1.542,1.542,0,1,1-1.607,1.541A1.575,1.575,0,0,1,970.557,1967.8Z" transform="translate(-958.96 -1947.512)"/><path class="j" d="M1091.02,955.59h8.137a.9.9,0,0,1,.9.9v2.067a.9.9,0,0,1-.9.9h-8.137a.9.9,0,0,1-.9-.9V956.49A.9.9,0,0,1,1091.02,955.59Z" transform="translate(-1078.881 -945.738)"/><path class="c" d="M1091.042,955.59h8.053a.924.924,0,0,1,.942.9v.19a1.079,1.079,0,0,1-.3-.241,3.03,3.03,0,0,0-.345-.33c-.107-.076-.193-.089-1.586-.089s-4.093.013-5.492.028-1.5.032-1.577.115-.132.23-.157.667a11.3,11.3,0,0,0,.027,1.572.931.931,0,0,0,.218.6c.079.1.148.2.114.289a.233.233,0,0,1-.158.127.91.91,0,0,1-.677-.864V956.49A.925.925,0,0,1,1091.042,955.59Z" transform="translate(-1078.861 -945.738)"/><path class="d" d="M1064.241,929.71h8.053a1.245,1.245,0,0,1,.862.342h0l.005,0a1.139,1.139,0,0,1,.354.819v2.067a1.139,1.139,0,0,1-.359.824,1.248,1.248,0,0,1-.863.343h-8.053a1.247,1.247,0,0,1-.862-.343h0l-.005,0a1.137,1.137,0,0,1-.354-.819v-2.067a1.139,1.139,0,0,1,.359-.824h0A1.247,1.247,0,0,1,1064.241,929.71Zm8.053.534h-8.053a.675.675,0,0,0-.468.186h0a.616.616,0,0,0-.194.447v2.067a.619.619,0,0,0,.194.447h0a.68.68,0,0,0,.468.185h8.053a.676.676,0,0,0,.468-.186.618.618,0,0,0,.195-.447v-2.067a.619.619,0,0,0-.194-.447h0A.678.678,0,0,0,1072.295,930.244Z" transform="translate(-1052.06 -920.125)"/><path class="e" d="M190.566,1271.68a2.356,2.356,0,0,1,1.681.706,2.416,2.416,0,0,1,0,3.39,2.354,2.354,0,0,1-3.362,0,2.416,2.416,0,0,1,0-3.39A2.356,2.356,0,0,1,190.566,1271.68Zm1.207,1.172a1.694,1.694,0,0,0-2.414,0,1.755,1.755,0,0,0,0,2.458,1.695,1.695,0,0,0,2.414,0,1.755,1.755,0,0,0,0-2.458Z" transform="translate(-186.25 -1258.569)"/><path class="e" d="M2564.936,1153.07a2.358,2.358,0,0,1,1.682.706,2.417,2.417,0,0,1,0,3.39,2.355,2.355,0,0,1-3.363,0,2.415,2.415,0,0,1,0-3.39A2.355,2.355,0,0,1,2564.936,1153.07Zm1.207,1.172a1.695,1.695,0,0,0-2.414,0,1.756,1.756,0,0,0,0,2.458,1.694,1.694,0,0,0,2.414,0,1.754,1.754,0,0,0,0-2.458Z" transform="translate(-2536.14 -1141.182)"/><path class="e" d="M2034.356,303.65a2.357,2.357,0,0,1,1.682.706,2.417,2.417,0,0,1,0,3.39,2.355,2.355,0,0,1-3.363,0,2.416,2.416,0,0,1,0-3.39A2.357,2.357,0,0,1,2034.356,303.65Zm1.207,1.172a1.694,1.694,0,0,0-2.414,0,1.755,1.755,0,0,0,0,2.457,1.694,1.694,0,0,0,2.414,0,1.755,1.755,0,0,0,0-2.457Z" transform="translate(-2011.031 -300.519)"/><path class="b" d="M1216.63,841.48h7.25v4.293a1.337,1.337,0,0,1-1.333,1.334h-4.584a1.337,1.337,0,0,1-1.333-1.334Z" transform="translate(-1204.087 -832.804)"/><path class="c" d="M1218.32,934.141h-.357a1.338,1.338,0,0,1-1.333-1.334V929.42c.064,0,.124,0,.178,0h.246c.045,0,.045,0,.041.308s-.01.923-.014,1.5,0,1.12.007,1.457a1.414,1.414,0,0,0,.107.629.9.9,0,0,0,.393.436,3.664,3.664,0,0,0,.587.127A.184.184,0,0,1,1218.32,934.141Z" transform="translate(-1204.087 -919.838)"/><path class="d" d="M1204.861,929.71v3.383a1.53,1.53,0,0,1-.45,1.083h0a1.53,1.53,0,0,1-1.083.45h-4.584a1.537,1.537,0,0,1-1.533-1.534V929.71h.4v3.383a1.138,1.138,0,0,0,1.133,1.134h4.584a1.129,1.129,0,0,0,.8-.332h0a1.13,1.13,0,0,0,.333-.8V929.71h.4Z" transform="translate(-1184.867 -920.125)"/><path class="b" d="M474,1714.32a2.423,2.423,0,1,1-2.4,2.423A2.412,2.412,0,0,1,474,1714.32Z" transform="translate(-466.738 -1696.645)"/><path class="d" d="M782.26,1707.28a2.594,2.594,0,0,1,1.037.642,2.632,2.632,0,0,1-.495,4.1c-.031-.1-.072-.238-.116-.4a2.16,2.16,0,0,0,.327-.272,2.241,2.241,0,0,0,0-3.146,2.2,2.2,0,0,0-.749-.5C782.263,1707.557,782.261,1707.414,782.26,1707.28Z" transform="translate(-774.195 -1689.678)"/><path class="b" d="M2230.73,1719.15a2.423,2.423,0,1,1-2.4,2.423A2.412,2.412,0,0,1,2230.73,1719.15Z" transform="translate(-2205.356 -1701.425)"/><path class="d" d="M2210.3,1713.077a2.629,2.629,0,0,1,.563-4.847,2.012,2.012,0,0,1,.023.425,2.382,2.382,0,0,0-.912.538,2.241,2.241,0,0,0,0,3.146,3.315,3.315,0,0,0,.491.387C2210.447,1712.868,2210.332,1712.938,2210.3,1713.077Z" transform="translate(-2186.156 -1690.618)"/><path class="b" d="M2105.391,1027.92a2.423,2.423,0,1,1-2.4,2.423A2.412,2.412,0,0,1,2105.391,1027.92Z" transform="translate(-2081.309 -1017.322)"/><path class="d" d="M2086.794,1170.7a2.587,2.587,0,0,1-2.442-.7,2.641,2.641,0,0,1-.571-2.842c.129.027.262.058.393.1a2.245,2.245,0,0,0,.461,2.465,2.19,2.19,0,0,0,2.1.583C2086.749,1170.434,2086.77,1170.557,2086.794,1170.7Z" transform="translate(-2062.109 -1155.126)"/><path class="b" d="M597.331,1019.84a2.221,2.221,0,1,1-2.2,2.221A2.211,2.211,0,0,1,597.331,1019.84Z" transform="translate(-588.994 -1009.326)"/><path class="d" d="M797.6,1181.85a2.44,2.44,0,0,1-.641,2.262,2.383,2.383,0,0,1-1.7.71c-.047,0-.093,0-.139,0,.027-.1.049-.186.066-.248a.282.282,0,0,1,.07-.148h0a1.986,1.986,0,0,0,1.415-.591,2.044,2.044,0,0,0,.543-1.847c.1-.043.2-.073.276-.1Z" transform="translate(-786.922 -1169.665)"/><path class="c" d="M1418.86,2128.79h3.95a2.71,2.71,0,0,1-2.7,2.7h-1.248v-2.7Z" transform="translate(-1404.232 -2106.842)"/><path class="d" d="M1393.247,2102.92h3.95a.267.267,0,0,1,.267.267,2.959,2.959,0,0,1-.872,2.1h0a2.963,2.963,0,0,1-2.1.871h-1.248a.267.267,0,0,1-.267-.267v-2.7a.267.267,0,0,1,.267-.267Zm3.668.534h-3.4v2.167h.981a2.426,2.426,0,0,0,1.72-.714h0a2.433,2.433,0,0,0,.7-1.453Z" transform="translate(-1378.619 -2081.239)"/><path class="c" d="M1398.451,1777.44a.241.241,0,1,1-.261.24A.252.252,0,0,1,1398.451,1777.44Z" transform="translate(-1383.775 -1759.115)"/></g></g></svg>