<svg xmlns="http://www.w3.org/2000/svg" viewBox="0 0 22 22"><defs><style>.a{fill:rgba(7,6,6,0);}.b,.c{fill:#fff;}.b{stroke:#9a9a9a;}.d,.e,.h{fill:#9a9a9a;}.d{font-size:9px;font-family:Titillium-Semibold, Titillium;font-weight:600;letter-spacing:0.005em;}.f,.h{stroke:none;}.g{fill:none;}</style></defs><g transform="translate(-89 -340)"><rect class="a" width="22" height="22" transform="translate(89 340)"/><g transform="translate(-150 49)"><g class="b" transform="translate(251 293)"><circle class="f" cx="4.5" cy="4.5" r="4.5"/><circle class="g" cx="4.5" cy="4.5" r="4"/></g><g class="c" transform="translate(240 302)"><path class="f" d="M 17.97609901428223 8.5 L 14.7721996307373 8.5 L 14.7721996307373 6.243299961090088 L 14.7721996307373 5.743299961090088 L 14.2721996307373 5.743299961090088 L 8.320500373840332 5.743299961090088 L 8.004549980163574 5.743299961090088 L 7.868919849395752 6.028649806976318 C 7.230169773101807 7.372479915618896 5.856919765472412 8.240799903869629 4.370399951934814 8.240799903869629 C 2.236249923706055 8.240799903869629 0.4999999105930328 6.504549980163574 0.4999999105930328 4.370399951934814 C 0.4999999105930328 2.236249923706055 2.236249923706055 0.5 4.370399951934814 0.5 C 5.856919765472412 0.5 7.230169773101807 1.368319988250732 7.868919849395752 2.712150096893311 L 8.004549980163574 2.997499942779541 L 8.320500373840332 2.997499942779541 L 18.97599983215332 2.997499942779541 L 18.97599983215332 5.743299961090088 L 18.47609901428223 5.743299961090088 L 17.97609901428223 5.743299961090088 L 17.97609901428223 6.243299961090088 L 17.97609901428223 8.5 Z"/><path class="h" d="M 17.47609901428223 8 L 17.47609901428223 6.243299961090088 L 17.47609901428223 5.243299961090088 L 18.47599983215332 5.243299961090088 L 18.47599983215332 3.497499942779541 L 8.320500373840332 3.497499942779541 L 7.688600063323975 3.497499942779541 L 7.417329788208008 2.926789999008179 C 6.860980033874512 1.756309986114502 5.664989948272705 1 4.370399951934814 1 C 2.511960029602051 1 0.9999999403953552 2.511960029602051 0.9999999403953552 4.370399951934814 C 0.9999999403953552 6.228839874267578 2.511960029602051 7.740799903869629 4.370399951934814 7.740799903869629 C 5.664989948272705 7.740799903869629 6.860980033874512 6.984489917755127 7.417329788208008 5.814010143280029 L 7.688600063323975 5.243299961090088 L 8.320500373840332 5.243299961090088 L 14.2721996307373 5.243299961090088 L 15.2721996307373 5.243299961090088 L 15.2721996307373 6.243299961090088 L 15.2721996307373 8 L 17.47609901428223 8 M 18.47609901428223 9 L 14.2721996307373 9 L 14.2721996307373 6.243299961090088 L 8.320500373840332 6.243299961090088 C 7.618499755859375 7.720200061798096 6.113699913024902 8.740799903869629 4.370399951934814 8.740799903869629 C 1.956599950790405 8.740799903869629 -8.392333938900265e-08 6.784200191497803 -8.392333938900265e-08 4.370399951934814 C -8.392333938900265e-08 1.956599950790405 1.956599950790405 0 4.370399951934814 0 C 6.113699913024902 0 7.618499755859375 1.020599961280823 8.320500373840332 2.497499942779541 L 19.47599983215332 2.497499942779541 L 19.47599983215332 6.243299961090088 L 18.47609901428223 6.243299961090088 L 18.47609901428223 9 Z"/></g><text class="d" transform="translate(240 300)"><tspan x="0" y="0">24</tspan></text><path class="e" d="M0,2.5V-1H1V1.5H3v1Z" transform="translate(255 296)"/></g></g></svg>